<svg version="1.1" xmlns="http://www.w3.org/2000/svg" xmlns:xlink="http://www.w3.org/1999/xlink" width="959" height="475"><defs></defs><g><g transform="translate(2,-86) scale(1,1)"><rect fill="#C0C0C0" stroke="none" x="15" y="439" width="299" height="111" opacity="0.2"></rect></g><g transform="translate(2,-86) scale(1,1)"><rect fill="#ffffff" stroke="none" x="8" y="432" width="299" height="111"></rect></g><g transform="translate(2,-86) scale(1,1)"><path fill="none" stroke="#000000" d="M 8 432 L 307 432 L 307 543 L 8 543 L 8 432 Z Z" stroke-miterlimit="10"></path></g><g transform="translate(2,-86) scale(1,1)"><path fill="none" stroke="#000000" d="M 8 457 L 307 457" stroke-miterlimit="10"></path></g><g transform="translate(2,-86) scale(1,1)"><path fill="none" stroke="#000000" d="M 8 467 L 307 467" stroke-miterlimit="10"></path></g><g transform="translate(2,-86) scale(1,1)"><g><path fill="none" stroke="none"></path><text fill="#000000" stroke="none" font-family="Arial" font-size="13px" font-style="normal" font-weight="bold" text-decoration="none" x="114.5" y="451.5">ConsoleLogger</text></g></g><g transform="translate(2,-86) scale(1,1)"><g><path fill="none" stroke="none"></path><text fill="#000000" stroke="none" font-family="Arial" font-size="13px" font-style="normal" font-weight="normal" text-decoration="none" x="13" y="484.5">#write(message: String): void</text></g></g><g transform="translate(2,-86) scale(1,1)"><rect fill="#C0C0C0" stroke="none" x="335" y="439" width="299" height="119" opacity="0.2"></rect></g><g transform="translate(2,-86) scale(1,1)"><rect fill="#ffffff" stroke="none" x="328" y="432" width="299" height="119"></rect></g><g transform="translate(2,-86) scale(1,1)"><path fill="none" stroke="#000000" d="M 328 432 L 627 432 L 627 551 L 328 551 L 328 432 Z Z" stroke-miterlimit="10"></path></g><g transform="translate(2,-86) scale(1,1)"><path fill="none" stroke="#000000" d="M 328 457 L 627 457" stroke-miterlimit="10"></path></g><g transform="translate(2,-86) scale(1,1)"><path fill="none" stroke="#000000" d="M 328 467 L 627 467" stroke-miterlimit="10"></path></g><g transform="translate(2,-86) scale(1,1)"><g><path fill="none" stroke="none"></path><text fill="#000000" stroke="none" font-family="Arial" font-size="13px" font-style="normal" font-weight="bold" text-decoration="none" x="444" y="451.5">ErrorLogger</text></g></g><g transform="translate(2,-86) scale(1,1)"><g><path fill="none" stroke="none"></path><text fill="#000000" stroke="none" font-family="Arial" font-size="13px" font-style="normal" font-weight="normal" text-decoration="none" x="333" y="484.5">#write(message: String): void</text></g></g><g transform="translate(2,-86) scale(1,1)"><rect fill="#C0C0C0" stroke="none" x="655" y="439" width="299" height="119" opacity="0.2"></rect></g><g transform="translate(2,-86) scale(1,1)"><rect fill="#ffffff" stroke="none" x="648" y="432" width="299" height="119"></rect></g><g transform="translate(2,-86) scale(1,1)"><path fill="none" stroke="#000000" d="M 648 432 L 947 432 L 947 551 L 648 551 L 648 432 Z Z" stroke-miterlimit="10"></path></g><g transform="translate(2,-86) scale(1,1)"><path fill="none" stroke="#000000" d="M 648 457 L 947 457" stroke-miterlimit="10"></path></g><g transform="translate(2,-86) scale(1,1)"><path fill="none" stroke="#000000" d="M 648 467 L 947 467" stroke-miterlimit="10"></path></g><g transform="translate(2,-86) scale(1,1)"><g><path fill="none" stroke="none"></path><text fill="#000000" stroke="none" font-family="Arial" font-size="13px" font-style="normal" font-weight="bold" text-decoration="none" x="767.5" y="451.5">FileLogger</text></g></g><g transform="translate(2,-86) scale(1,1)"><g><path fill="none" stroke="none"></path><text fill="#000000" stroke="none" font-family="Arial" font-size="13px" font-style="normal" font-weight="normal" text-decoration="none" x="653" y="484.5">#write(message: String): void</text></g></g><g transform="translate(2,-86) scale(1,1)"><rect fill="#C0C0C0" stroke="none" x="527" y="103" width="299" height="160" opacity="0.2"></rect></g><g transform="translate(2,-86) scale(1,1)"><rect fill="#ffffff" stroke="none" x="520" y="96" width="299" height="160"></rect></g><g transform="translate(2,-86) scale(1,1)"><path fill="none" stroke="#000000" d="M 520 96 L 819 96 L 819 256 L 520 256 L 520 96 Z Z" stroke-miterlimit="10"></path></g><g transform="translate(2,-86) scale(1,1)"><path fill="none" stroke="#000000" d="M 520 121 L 819 121" stroke-miterlimit="10"></path></g><g transform="translate(2,-86) scale(1,1)"><path fill="none" stroke="#000000" d="M 520 204 L 819 204" stroke-miterlimit="10"></path></g><g transform="translate(2,-86) scale(1,1)"><g><path fill="none" stroke="none"></path><text fill="#000000" stroke="none" font-family="Arial" font-size="13px" font-style="normal" font-weight="bold" text-decoration="none" x="625.5" y="115.5">AbstractLogger</text></g></g><g transform="translate(2,-86) scale(1,1)"><g><path fill="none" stroke="none"></path><text fill="#000000" stroke="none" font-family="Arial" font-size="13px" font-style="normal" font-weight="normal" text-decoration="none" x="525" y="138.5">+INFO: int = 1</text><path fill="none" stroke="#000000" d="M 525 138.5 L 608 138.5" stroke-miterlimit="10"></path></g></g><g transform="translate(2,-86) scale(1,1)"><g><path fill="none" stroke="none"></path><text fill="#000000" stroke="none" font-family="Arial" font-size="13px" font-style="normal" font-weight="normal" text-decoration="none" x="525" y="153.5">+DEBUG: int = 2</text><path fill="none" stroke="#000000" d="M 525 153.5 L 624 153.5" stroke-miterlimit="10"></path></g></g><g transform="translate(2,-86) scale(1,1)"><g><path fill="none" stroke="none"></path><text fill="#000000" stroke="none" font-family="Arial" font-size="13px" font-style="normal" font-weight="normal" text-decoration="none" x="525" y="168.5">+ERROR: int = 3</text><path fill="none" stroke="#000000" d="M 525 168.5 L 624 168.5" stroke-miterlimit="10"></path></g></g><g transform="translate(2,-86) scale(1,1)"><g><path fill="none" stroke="none"></path><text fill="#000000" stroke="none" font-family="Arial" font-size="13px" font-style="normal" font-weight="normal" text-decoration="none" x="525" y="183.5">#level: int</text></g></g><g transform="translate(2,-86) scale(1,1)"><g><path fill="none" stroke="none"></path><text fill="#000000" stroke="none" font-family="Arial" font-size="13px" font-style="normal" font-weight="normal" text-decoration="none" x="525" y="198.5">+nextLogger: AbstractLogger</text></g></g><g transform="translate(2,-86) scale(1,1)"><g><path fill="none" stroke="none"></path><text fill="#000000" stroke="none" font-family="Arial" font-size="13px" font-style="normal" font-weight="normal" text-decoration="none" x="525" y="221.5">+setNextLogger(nextLogger: AbstractLogger): void</text></g></g><g transform="translate(2,-86) scale(1,1)"><g><path fill="none" stroke="none"></path><text fill="#000000" stroke="none" font-family="Arial" font-size="13px" font-style="normal" font-weight="normal" text-decoration="none" x="525" y="236.5">+logMessage(level: int, message: String): void</text></g></g><g transform="translate(2,-86) scale(1,1)"><g><path fill="none" stroke="none"></path><text fill="#000000" stroke="none" font-family="Arial" font-size="13px" font-style="italic" font-weight="normal" text-decoration="none" x="525" y="251.5">#write(message: String): void</text></g></g><g transform="translate(2,-86) scale(1,1)"><rect fill="#C0C0C0" stroke="none" x="127" y="103" width="239" height="159" opacity="0.2"></rect></g><g transform="translate(2,-86) scale(1,1)"><rect fill="#ffffff" stroke="none" x="120" y="96" width="239" height="159"></rect></g><g transform="translate(2,-86) scale(1,1)"><path fill="none" stroke="#000000" d="M 120 96 L 359 96 L 359 255 L 120 255 L 120 96 Z Z" stroke-miterlimit="10"></path></g><g transform="translate(2,-86) scale(1,1)"><path fill="none" stroke="#000000" d="M 120 121 L 359 121" stroke-miterlimit="10"></path></g><g transform="translate(2,-86) scale(1,1)"><path fill="none" stroke="#000000" d="M 120 131 L 359 131" stroke-miterlimit="10"></path></g><g transform="translate(2,-86) scale(1,1)"><g><path fill="none" stroke="none"></path><text fill="#000000" stroke="none" font-family="Arial" font-size="13px" font-style="normal" font-weight="bold" text-decoration="none" x="185" y="115.5">ChainPatternDemo</text></g></g><g transform="translate(2,-86) scale(1,1)"><g><path fill="none" stroke="none"></path><text fill="#000000" stroke="none" font-family="Arial" font-size="13px" font-style="normal" font-weight="normal" text-decoration="none" x="125" y="148.5">+main(args[]: String): void</text><path fill="none" stroke="#000000" d="M 125 148.5 L 274 148.5" stroke-miterlimit="10"></path></g></g><g transform="translate(2,-86) scale(1,1)"><g><path fill="none" stroke="none"></path><text fill="#000000" stroke="none" font-family="Arial" font-size="13px" font-style="normal" font-weight="normal" text-decoration="none" x="125" y="163.5">-getChainOfLoggers(): AbstractLogger</text><path fill="none" stroke="#000000" d="M 125 163.5 L 343 163.5" stroke-miterlimit="10"></path></g></g><g transform="translate(2,-86) scale(1,1)"><path fill="none" stroke="#000000" d="M 360 175 L 519 176" stroke-miterlimit="10"></path></g><g transform="translate(2,-86) scale(1,1)"><path fill="none" stroke="#000000" d="M 508.811051699892 180.1455195739167 L 519 176 L 508.8640005615764 171.72665056609256" stroke-miterlimit="10"></path></g><g transform="translate(2,-86) scale(1,1)"><path fill="#FFFFFF" stroke="none" d="M 370.188948300108 170.8544804260833 L 360 175 L 370.1359994384236 179.27334943390744 L 381.9995649035371 175.13836204341848"></path></g><g transform="translate(2,-86) scale(1,1)"><path fill="none" stroke="#000000" d="M 370.188948300108 170.8544804260833 L 360 175 L 370.1359994384236 179.27334943390744 L 381.9995649035371 175.13836204341848 L 370.188948300108 170.8544804260833" stroke-miterlimit="10"></path></g><g transform="translate(2,-86) scale(1,1)"><path fill="none" stroke="#000000" d="M 160 432 L 160 368 L 640 368 L 640 256" stroke-miterlimit="10"></path></g><g transform="translate(2,-86) scale(1,1)"><path fill="#FFFFFF" stroke="none" d="M 648.419035512032 276.3253497152483 L 640 256 L 631.580964487968 276.3253497152483"></path></g><g transform="translate(2,-86) scale(1,1)"><path fill="none" stroke="#000000" d="M 648.419035512032 276.3253497152483 L 640 256 L 631.580964487968 276.3253497152483 L 648.419035512032 276.3253497152483" stroke-miterlimit="10"></path></g><g transform="translate(2,-86) scale(1,1)"><g><path fill="none" stroke="none"></path><text fill="#000000" stroke="none" font-family="Arial" font-size="13px" font-style="normal" font-weight="normal" text-decoration="none" x="373" y="360">+extends</text></g></g><g transform="translate(2,-86) scale(1,1)"><path fill="none" stroke="#000000" d="M 472 432 L 472 368 L 640 368 L 640 256" stroke-miterlimit="10"></path></g><g transform="translate(2,-86) scale(1,1)"><path fill="#FFFFFF" stroke="none" d="M 648.419035512032 276.3253497152483 L 640 256 L 631.580964487968 276.3253497152483"></path></g><g transform="translate(2,-86) scale(1,1)"><path fill="none" stroke="#000000" d="M 648.419035512032 276.3253497152483 L 640 256 L 631.580964487968 276.3253497152483 L 648.419035512032 276.3253497152483" stroke-miterlimit="10"></path></g><g transform="translate(2,-86) scale(1,1)"><g><path fill="none" stroke="none"></path><text fill="#000000" stroke="none" font-family="Arial" font-size="13px" font-style="normal" font-weight="normal" text-decoration="none" x="529" y="360">+extends</text></g></g><g transform="translate(2,-86) scale(1,1)"><path fill="none" stroke="#000000" d="M 784 432 L 784 360 L 640 360 L 640 256" stroke-miterlimit="10"></path></g><g transform="translate(2,-86) scale(1,1)"><path fill="#FFFFFF" stroke="none" d="M 648.419035512032 276.3253497152483 L 640 256 L 631.580964487968 276.3253497152483"></path></g><g transform="translate(2,-86) scale(1,1)"><path fill="none" stroke="#000000" d="M 648.419035512032 276.3253497152483 L 640 256 L 631.580964487968 276.3253497152483 L 648.419035512032 276.3253497152483" stroke-miterlimit="10"></path></g><g transform="translate(2,-86) scale(1,1)"><g><path fill="none" stroke="none"></path><text fill="#000000" stroke="none" font-family="Arial" font-size="13px" font-style="normal" font-weight="normal" text-decoration="none" x="675" y="390">+extends</text></g></g></g></svg>